<svg width="180" height="55" viewBox="0 0 180 55" fill="none" xmlns="http://www.w3.org/2000/svg">
<g clip-path="url(#clip0_4051_5912)">
<path d="M71.3011 29.6322C70.8719 30.4292 70.1975 31.1036 69.2166 31.594C68.297 32.0845 67.1321 32.3297 65.7834 32.3297H63.2697V38.3379H59.1621V21.5396H65.7834C67.1321 21.5396 68.2357 21.7848 69.1553 22.2139C70.0749 22.7044 70.7493 23.3175 71.2398 24.1145C71.7302 24.9115 71.9142 25.8924 71.9142 26.9346C71.9755 27.9156 71.7302 28.7739 71.3011 29.6322ZM67.2548 28.4673C67.6226 28.0995 67.8065 27.609 67.8065 26.9346C67.8065 26.2603 67.6226 25.7698 67.2548 25.4019C66.8869 25.0341 66.2738 24.8502 65.4768 24.8502H63.2697V29.0804H65.4768C66.2738 29.0191 66.8256 28.8352 67.2548 28.4673Z" fill="#E73137"/>
<path d="M80.0068 25.4632C80.7425 25.034 81.5395 24.8501 82.3978 24.8501V29.203H81.2943C80.252 29.203 79.5163 29.4482 79.0259 29.8773C78.5354 30.3065 78.2902 31.1035 78.2902 32.207V38.3991H74.1826V24.9727H78.2902V27.1798C78.658 26.4441 79.2711 25.8923 80.0068 25.4632Z" fill="#E73137"/>
<path d="M86.8733 37.6637C85.831 37.1119 85.034 36.3149 84.421 35.2727C83.8079 34.2305 83.5013 33.0043 83.5013 31.6555C83.5013 30.3068 83.8079 29.0806 84.421 28.0384C85.034 26.9961 85.831 26.1991 86.9346 25.6474C87.9768 25.0956 89.1417 24.7891 90.4904 24.7891C91.7779 24.7891 93.0041 25.0956 94.0463 25.6474C95.0885 26.1991 95.9468 26.9961 96.5599 28.0384C97.173 29.0806 97.4795 30.3068 97.4795 31.6555C97.4795 33.0043 97.173 34.2305 96.5599 35.2727C95.9468 36.3149 95.0885 37.1119 94.0463 37.6637C93.0041 38.2155 91.7779 38.522 90.4904 38.522C89.0804 38.522 87.9155 38.2155 86.8733 37.6637ZM92.391 34.1079C92.9428 33.5561 93.188 32.6978 93.188 31.6555C93.188 30.6133 92.9428 29.755 92.391 29.2032C91.8392 28.6515 91.2261 28.3449 90.4291 28.3449C89.6321 28.3449 88.9577 28.6515 88.4673 29.2032C87.9155 29.755 87.6703 30.6133 87.6703 31.6555C87.6703 32.6978 87.9155 33.5561 88.4673 34.1079C89.0191 34.6596 89.6321 34.9662 90.4291 34.9662C91.2261 34.9662 91.8392 34.7209 92.391 34.1079Z" fill="#E73137"/>
<path d="M102.629 23.8692V28.7738H108.392V30.9809H102.629V36.0695H109.067V38.2765H99.8705V21.6621H109.067V23.8692H102.629Z" fill="#575756"/>
<path d="M121.88 25.5858C122.677 26.0149 123.351 26.628 123.781 27.4863C124.271 28.3446 124.455 29.3256 124.455 30.5517V38.3378H121.757V30.9809C121.757 29.816 121.451 28.8964 120.899 28.2833C120.286 27.6702 119.489 27.3637 118.508 27.3637C117.466 27.3637 116.669 27.6702 116.056 28.2833C115.443 28.8964 115.136 29.816 115.136 30.9809V38.3378H112.377V25.1566H115.136V26.6893C115.565 26.1376 116.178 25.7084 116.853 25.4019C117.527 25.0953 118.263 24.9727 119.06 24.9727C120.102 24.9114 121.083 25.1566 121.88 25.5858Z" fill="#575756"/>
<path d="M139.966 32.7588H129.911C129.973 33.801 130.402 34.6593 131.076 35.2724C131.751 35.8855 132.67 36.2533 133.651 36.2533C135.123 36.2533 136.165 35.6402 136.778 34.4141H139.721C139.292 35.6402 138.617 36.6212 137.575 37.4182C136.533 38.2152 135.245 38.583 133.713 38.583C132.425 38.583 131.322 38.2765 130.341 37.7247C129.36 37.1729 128.563 36.3759 128.011 35.3337C127.459 34.2915 127.153 33.1266 127.153 31.7778C127.153 30.4291 127.398 29.2029 127.95 28.222C128.501 27.1797 129.298 26.3827 130.279 25.831C131.26 25.2792 132.425 24.9727 133.713 24.9727C134.939 24.9727 136.042 25.2179 137.023 25.7697C138.004 26.3214 138.74 27.0571 139.292 28.0381C139.843 29.019 140.089 30.1225 140.089 31.41C140.027 31.9004 140.027 32.3296 139.966 32.7588ZM137.207 30.5517C137.207 29.5707 136.839 28.7124 136.104 28.1607C135.429 27.5476 134.51 27.241 133.467 27.241C132.548 27.241 131.751 27.5476 131.076 28.1607C130.402 28.7737 130.034 29.5707 129.85 30.613H137.207V30.5517Z" fill="#575756"/>
<path d="M147.078 25.4634C147.752 25.0955 148.549 24.9116 149.407 24.9116V27.7318H148.733C147.691 27.7318 146.832 27.977 146.281 28.5288C145.729 29.0806 145.484 30.0002 145.484 31.3489V38.2767H142.725V25.1569H145.484V27.0574C145.851 26.383 146.403 25.8925 147.078 25.4634Z" fill="#575756"/>
<path d="M159.952 25.5245C160.749 25.9537 161.362 26.4442 161.792 27.0572V25.1567H164.55V38.5831C164.55 39.8093 164.305 40.8515 163.815 41.8324C163.324 42.7521 162.589 43.5491 161.608 44.1008C160.627 44.6526 159.462 44.8978 158.174 44.8978C156.396 44.8978 154.925 44.4687 153.699 43.6717C152.534 42.8134 151.86 41.7098 151.676 40.2384H154.373C154.557 40.9128 155.048 41.4646 155.722 41.8937C156.396 42.3229 157.193 42.5068 158.174 42.5068C159.278 42.5068 160.136 42.2003 160.872 41.5259C161.546 40.8515 161.914 39.8706 161.914 38.5831V36.376C161.424 36.9891 160.811 37.5409 160.014 37.97C159.217 38.3992 158.297 38.5831 157.316 38.5831C156.151 38.5831 155.109 38.2766 154.189 37.7248C153.27 37.173 152.473 36.3147 151.921 35.2725C151.369 34.2303 151.124 33.0654 151.124 31.7166C151.124 30.3679 151.369 29.203 151.921 28.2221C152.473 27.1799 153.208 26.3829 154.189 25.8311C155.109 25.2793 156.213 24.9728 157.316 24.9728C158.236 24.9115 159.155 25.1567 159.952 25.5245ZM161.24 29.3256C160.872 28.6512 160.381 28.1608 159.768 27.7929C159.155 27.4251 158.481 27.2412 157.807 27.2412C157.132 27.2412 156.458 27.4251 155.845 27.7316C155.232 28.0995 154.741 28.5899 154.373 29.2643C154.005 29.9387 153.822 30.7357 153.822 31.594C153.822 32.5136 154.005 33.3106 154.373 33.985C154.741 34.6594 155.232 35.2112 155.845 35.579C156.458 35.9469 157.132 36.1308 157.807 36.1308C158.481 36.1308 159.155 35.9469 159.768 35.579C160.381 35.2112 160.872 34.7207 161.24 34.0463C161.608 33.3719 161.792 32.5749 161.792 31.6553C161.792 30.797 161.608 30 161.24 29.3256Z" fill="#575756"/>
<path d="M180 25.1565L171.907 44.5298H169.087L171.785 38.0925L166.574 25.0952H169.639L173.379 35.1497L177.241 25.0952H180V25.1565Z" fill="#575756"/>
<path d="M23.9101 3.14697L2.45232 17.8609" stroke="#E66559" stroke-width="8" stroke-miterlimit="10" stroke-linecap="round"/>
<path d="M44.1417 17.8609L23.9101 3.14697" stroke="#575756" stroke-width="8" stroke-miterlimit="10" stroke-linecap="round"/>
<path d="M23.9101 52.1936L2.45232 38.0928" stroke="#CFCDCC" stroke-width="8" stroke-miterlimit="10" stroke-linecap="round"/>
<path d="M44.1417 38.0928L23.9101 52.1936" stroke="#E73137" stroke-width="8" stroke-miterlimit="10" stroke-linecap="round"/>
<path d="M2.45232 17.8608V38.0924" stroke="#59A6C0" stroke-width="8" stroke-miterlimit="10" stroke-linecap="round"/>
<path d="M44.1417 17.8608V38.0924" stroke="#3EA397" stroke-width="8" stroke-miterlimit="10" stroke-linecap="round"/>
</g>
<defs>
<clipPath id="clip0_4051_5912">
<rect width="180" height="53.9509" fill="white" transform="translate(0 0.694824)"/>
</clipPath>
</defs>
</svg>
